# WaveFront *.obj file (generated by Cinema 4D)

v -11.836506 -11.849767 11.864070
v -11.836506 11.849767 11.864070
v -16.002299 -15.927311 0.000000
v 0.000000 0.000000 99.979729
v -99.979729 -0.000000 0.000000
v 11.836506 11.849767 11.864070
v -16.002299 15.927311 0.000000
v 0.000000 15.968382 15.994635
v -15.927311 0.000000 16.002299
v 0.000000 -15.968382 -15.994635
v -15.927311 0.000000 -16.002299
v -11.836506 11.849767 -11.864070
v 0.000000 0.000000 -99.979729
v 15.927311 0.000000 -16.002299
v 0.000000 99.979729 0.000000
v 15.927311 16.002299 0.000000
v 99.979729 0.000000 -0.000000
v 11.836506 11.849767 -11.864070
v 0.000000 15.968382 -15.994635
v 16.002299 15.927311 -0.000000
v 0.000000 -15.968382 15.994635
v 15.927311 0.000000 16.002299
v 11.836506 -11.849767 11.864070
v -15.927311 -16.002299 -0.000000
v -11.836506 -11.849767 -11.864070
v 0.000000 -99.979729 -0.000000
v 11.836506 -11.849767 -11.864070
v 15.927311 -16.002299 -0.000000
# 28 vertices

vn -0.172827 -0.911238 -0.373866
vn -0.635188 -0.440772 -0.634237
vn -0.173189 -0.377472 -0.909681
vn -0.442041 -0.634414 0.634128
vn -0.376987 -0.909917 0.173006
vn -0.635188 -0.440772 0.634237
vn -0.910874 -0.374785 0.172758
vn -0.633966 0.635329 -0.440958
vn -0.172827 0.911238 -0.373866
vn -0.635188 0.440772 -0.634237
vn -0.173189 0.377472 -0.909681
vn 0.442041 -0.634414 0.634128
vn 0.376987 -0.909917 0.173006
vn 0.635188 -0.440772 0.634237
vn 0.910874 -0.374785 0.172758
vn -0.172827 -0.911238 0.373866
vn -0.173189 -0.377472 0.909681
vn -0.442041 0.634414 0.634128
vn -0.376987 0.909917 0.173006
vn -0.635188 0.440772 0.634237
vn -0.910874 0.374785 0.172758
vn -0.633966 0.635329 0.440958
vn -0.172827 0.911238 0.373866
vn -0.173189 0.377472 0.909681
vn 0.442041 0.634414 0.634128
vn 0.376987 0.909917 0.173006
vn 0.635188 0.440772 0.634237
vn 0.910874 0.374785 0.172758
vn 0.707717 -0.706496 0.000000
vn 0.635195 -0.634099 -0.440960
vn 0.187025 -0.982355 0.000000
vn 0.635188 -0.440772 -0.634237
vn 0.173189 -0.377472 -0.909681
vn -0.442041 -0.634414 -0.634128
vn -0.376987 -0.909917 -0.173006
vn -0.910874 -0.374785 -0.172758
vn 0.172827 0.911238 -0.373866
vn 0.635188 0.440772 -0.634237
vn 0.173189 0.377472 -0.909681
vn 0.442041 -0.634414 -0.634128
vn 0.376987 -0.909917 -0.173006
vn 0.910874 -0.374785 -0.172758
vn 0.635195 -0.634099 0.440960
vn 0.173189 -0.377472 0.909681
vn -0.442041 0.634414 -0.634128
vn -0.376987 0.909917 -0.173006
vn -0.910874 0.374785 -0.172758
vn 0.172827 0.911238 0.373866
vn 0.173189 0.377472 0.909681
vn 0.442041 0.634414 -0.634128
vn 0.376987 0.909917 -0.173006
vn 0.910874 0.374785 -0.172758
vn 0.910957 -0.172774 -0.374576
vn 0.377679 -0.173175 -0.909598
vn -0.377679 0.173175 0.909598
vn -0.909178 0.173094 0.378727
vn -0.910957 -0.172774 -0.374576
vn -0.377679 -0.173175 -0.909598
vn 0.377679 0.173175 0.909598
vn 0.910957 0.172774 0.374576
vn 0.910957 -0.172774 0.374576
vn 0.377679 -0.173175 0.909598
vn -0.377679 0.173175 -0.909598
vn -0.909178 0.173094 -0.378727
vn -0.910957 -0.172774 0.374576
vn -0.377679 -0.173175 0.909598
vn 0.377679 0.173175 -0.909598
vn 0.910957 0.172774 -0.374576
# 68 normals

o decoObj01
usemtl default
f 25//1 3//1 5//1
f 11//2 25//2 5//3
f 21//4 4//5 1//4
f 9//6 1//6 4//7
f 7//8 12//8 5//9
f 11//10 5//11 12//10
f 21//12 23//12 4//13
f 23//14 22//14 4//15
f 3//16 1//16 5//16
f 9//6 5//17 1//6
f 8//18 2//18 4//19
f 2//20 9//20 4//21
f 2//22 7//22 5//23
f 9//20 2//20 5//24
f 8//25 4//26 6//25
f 22//27 6//27 4//28
f 28//29 27//30 17//31
f 14//32 17//33 27//32
f 10//34 25//34 13//35
f 25//2 11//2 13//36
f 18//37 20//37 17//37
f 14//38 18//38 17//39
f 10//40 13//41 27//40
f 14//32 27//32 13//42
f 23//43 28//29 17//31
f 22//14 23//14 17//44
f 19//45 13//46 12//45
f 11//10 12//10 13//47
f 20//48 6//48 17//48
f 22//27 17//49 6//27
f 19//50 18//50 13//51
f 18//38 14//38 13//52
f 27//30 28//29 26//53
f 10//40 27//40 26//54
f 8//18 15//55 2//18
f 7//22 2//22 15//56
f 24//57 25//57 26//57
f 10//34 26//58 25//34
f 8//25 6//25 15//59
f 6//60 16//60 15//60
f 28//29 23//43 26//61
f 21//12 26//62 23//12
f 19//45 12//45 15//63
f 12//8 7//8 15//64
f 1//65 24//65 26//65
f 21//4 1//4 26//66
f 19//50 15//67 18//50
f 16//68 18//68 15//68

